<?xml version="1.0" standalone="no"?>
<!DOCTYPE svg PUBLIC "-//W3C//DTD SVG 20010904//EN"
 "http://www.w3.org/TR/2001/REC-SVG-20010904/DTD/svg10.dtd">
<svg version="1.0" xmlns="http://www.w3.org/2000/svg"
 width="1200.000000pt" height="1200.000000pt" viewBox="0 0 1200.000000 1200.000000"
 preserveAspectRatio="xMidYMid meet">

<g transform="translate(0.000000,1200.000000) scale(0.100000,-0.100000)"
fill="#000000" stroke="none">
<path d="M4405 9339 c-85 -5 -148 -24 -230 -66 -27 -14 -149 -76 -270 -137
-243 -124 -253 -129 -343 -200 -68 -53 -153 -156 -177 -216 -4 -8 -11 -23 -16
-32 -5 -10 -9 -27 -9 -37 0 -11 -4 -23 -10 -26 -5 -3 -10 -17 -10 -30 0 -32
-19 -111 -37 -157 -19 -45 -78 -102 -122 -117 -64 -21 -83 -17 -207 40 -117
54 -153 63 -259 63 -89 0 -106 -3 -155 -28 -83 -41 -133 -95 -217 -231 -15
-23 -36 -67 -54 -112 -15 -35 -21 -38 -48 -23 -79 42 -298 65 -380 39 -181
-56 -295 -131 -468 -307 -198 -201 -241 -287 -230 -460 5 -81 19 -139 62 -252
18 -48 23 -59 54 -131 41 -94 86 -252 77 -274 -9 -25 -111 -49 -301 -74 -33
-4 -78 -15 -100 -25 -93 -40 -115 -90 -115 -261 0 -68 4 -145 9 -172 6 -26 15
-79 22 -118 39 -230 155 -436 314 -555 93 -69 161 -139 188 -190 26 -51 27
-56 27 -235 0 -101 5 -208 11 -237 29 -145 97 -261 195 -335 75 -56 194 -113
237 -113 13 0 27 -4 33 -9 5 -5 27 -11 49 -13 73 -8 309 -48 341 -58 17 -6 43
-10 59 -10 16 0 42 -4 59 -10 17 -5 75 -23 130 -40 191 -58 313 -133 451 -276
54 -56 65 -63 110 -69 28 -3 68 -10 90 -14 l40 -7 -3 -99 c-1 -55 -14 -179
-29 -275 -21 -143 -27 -215 -28 -395 -2 -251 -6 -285 -42 -375 -35 -86 -69
-135 -140 -201 -81 -74 -155 -109 -232 -109 -95 0 -156 33 -333 178 -76 62
-80 64 -165 77 -49 8 -119 16 -158 19 -170 14 -200 18 -214 26 -9 4 -36 11
-61 15 -25 4 -52 11 -60 15 -8 4 -30 10 -48 13 -27 5 -32 3 -32 -12 0 -18 71
-91 88 -91 8 0 64 -53 136 -128 17 -17 34 -29 38 -26 5 3 30 -17 57 -45 27
-28 55 -51 63 -51 7 0 25 -15 40 -34 15 -19 38 -36 50 -38 13 -2 23 -10 23
-18 0 -16 51 -45 73 -41 7 1 15 -6 19 -16 9 -23 34 -42 49 -36 6 2 19 -7 28
-21 9 -15 24 -26 34 -26 9 0 28 -12 41 -25 12 -14 27 -23 31 -20 5 3 19 -5 33
-17 45 -43 69 -59 81 -55 7 3 22 -6 35 -19 13 -13 29 -24 37 -24 8 0 14 -4 14
-10 0 -5 11 -10 25 -10 16 0 25 -6 25 -16 0 -11 6 -15 20 -11 13 3 20 0 20 -9
0 -8 7 -14 15 -14 9 0 33 -11 55 -25 22 -14 44 -25 50 -25 5 0 10 -4 10 -10 0
-5 6 -10 13 -10 6 0 43 -16 81 -34 38 -19 75 -32 82 -29 9 3 14 -2 14 -12 0
-13 6 -16 25 -11 17 4 25 2 25 -6 0 -14 35 -32 83 -44 15 -3 27 -10 27 -15 0
-5 11 -7 25 -3 18 4 25 2 25 -7 0 -16 76 -43 92 -33 6 4 17 -1 24 -11 7 -10
25 -17 39 -17 14 0 25 -6 25 -14 0 -12 26 -19 53 -15 4 0 7 -3 7 -9 0 -5 15
-10 34 -10 19 0 36 -4 38 -10 2 -5 17 -11 33 -12 17 -1 33 -6 36 -11 3 -4 20
-9 37 -9 17 -1 33 -7 37 -15 3 -11 14 -13 35 -8 23 5 32 3 36 -10 5 -11 16
-15 39 -13 18 1 39 -3 47 -10 8 -6 30 -12 49 -13 19 -2 39 -6 45 -10 6 -5 26
-9 45 -10 19 -2 42 -9 51 -17 12 -10 30 -13 57 -9 28 3 44 1 52 -10 8 -9 27
-13 53 -12 23 1 52 -3 65 -10 13 -7 40 -11 60 -9 20 3 51 -1 68 -9 18 -7 59
-13 90 -12 32 1 78 -6 103 -14 38 -13 112 -16 460 -15 228 0 420 4 425 8 16
11 85 22 135 21 25 -1 63 5 85 12 22 8 54 12 71 10 18 -3 42 1 55 8 13 7 45
11 70 10 30 -1 50 3 58 13 8 9 24 12 49 9 27 -4 42 -1 51 11 7 9 28 16 45 16
18 0 41 7 52 15 10 8 29 15 42 15 13 0 32 5 43 11 11 6 34 11 50 11 16 1 32 5
35 9 3 5 18 6 34 2 20 -4 31 -1 35 8 3 8 19 15 37 16 17 1 34 6 37 10 3 5 15
9 26 11 11 2 27 6 35 9 8 3 26 8 40 10 14 2 27 8 28 14 2 5 17 9 33 9 19 0 29
5 29 15 0 10 10 15 34 15 19 0 38 5 41 10 3 6 15 10 26 10 10 0 19 5 19 10 0
6 11 10 23 10 28 0 87 28 87 41 0 5 11 9 25 9 14 0 25 5 25 10 0 6 11 10 25
10 14 0 25 5 25 11 0 5 4 8 9 5 10 -6 305 141 309 154 2 6 10 10 17 10 7 0 16
7 19 16 4 10 12 14 22 10 15 -6 84 36 92 56 2 4 12 8 23 8 10 0 19 7 19 15 0
14 11 19 37 16 7 -1 18 7 25 19 7 11 21 20 32 20 10 0 27 10 38 22 10 12 26
23 36 24 9 2 24 12 34 23 9 12 23 21 32 21 8 0 23 11 32 25 9 14 24 25 34 25
9 0 31 13 48 30 18 16 36 30 42 30 5 0 26 17 47 39 22 21 48 41 59 45 18 5 94
87 94 100 0 3 -12 3 -27 1 -16 -3 -191 -32 -390 -64 l-362 -59 -78 -44 c-235
-132 -513 -219 -823 -259 -120 -16 -450 -15 -555 0 -44 6 -111 16 -150 22
-377 55 -829 240 -1169 477 -43 30 -81 63 -83 72 -3 9 -35 34 -71 56 -73 42
-214 175 -253 239 -57 93 -80 162 -94 290 -13 120 -13 130 10 261 27 157 44
208 100 318 48 94 65 108 95 81 17 -16 37 -20 90 -20 74 0 98 13 126 67 8 16
26 30 42 34 60 13 147 68 190 119 15 19 49 72 74 117 99 178 209 238 382 208
42 -7 79 -17 82 -21 3 -5 16 -9 29 -9 12 0 37 -13 53 -28 41 -38 49 -88 28
-161 -54 -183 -56 -205 -26 -275 24 -57 41 -64 88 -40 21 10 46 19 57 19 11 1
26 2 32 3 18 3 45 60 38 82 -3 10 1 33 10 50 21 40 16 160 -9 240 -43 136 -43
134 -1 172 92 80 87 79 210 71 l110 -6 65 -60 c138 -126 259 -184 540 -258
324 -85 378 -92 635 -93 203 0 245 3 330 26 253 68 426 185 658 445 15 18 42
35 60 38 17 4 42 16 55 28 19 18 22 30 22 103 0 46 5 86 10 89 6 3 10 40 10
81 0 90 22 145 80 206 22 22 40 46 40 52 0 7 11 23 25 36 14 13 25 29 25 36 0
6 7 17 15 24 9 7 36 54 61 104 48 96 100 199 115 228 5 10 9 27 9 37 0 11 5
23 10 26 5 3 10 14 10 23 0 9 7 30 15 46 8 15 15 34 15 42 0 7 9 29 20 49 11
20 20 50 20 68 0 68 118 137 233 137 25 0 49 -4 52 -10 3 -5 17 -10 30 -10 13
0 27 -4 30 -10 3 -5 16 -10 28 -10 12 0 42 -11 66 -25 23 -14 49 -25 57 -25 8
0 22 -4 32 -9 76 -38 106 -51 121 -51 9 0 22 -5 28 -11 6 -6 21 -12 34 -13 13
-2 29 -5 34 -6 6 -2 19 0 30 5 24 9 95 75 95 88 0 5 11 22 25 39 14 16 25 35
25 42 0 7 29 40 63 74 46 43 74 62 101 67 27 5 40 14 46 31 5 13 14 24 20 24
18 0 90 72 90 89 0 19 -45 64 -71 74 -9 3 -29 -1 -44 -9 -15 -8 -38 -14 -51
-14 -12 0 -26 -4 -29 -10 -3 -5 -17 -10 -30 -10 -13 0 -27 -4 -30 -10 -3 -5
-19 -10 -35 -10 -16 0 -32 -4 -35 -10 -3 -5 -19 -10 -34 -10 -15 0 -36 -7 -47
-15 -10 -8 -32 -15 -48 -15 -16 0 -37 -6 -45 -14 -9 -7 -48 -26 -87 -41 -71
-27 -72 -27 -123 -10 -28 9 -53 21 -56 25 -11 18 -171 89 -233 105 -117 28
-231 15 -342 -40 -25 -12 -50 -20 -57 -18 -7 2 -24 43 -39 91 -14 48 -42 139
-61 202 -19 63 -43 142 -54 174 -28 88 -26 96 34 141 82 62 117 85 130 85 7 0
24 6 38 14 61 31 169 56 247 56 111 0 281 -36 474 -101 69 -23 105 -29 172
-29 47 0 88 5 91 10 3 6 48 10 98 10 l92 0 76 78 c81 83 139 155 139 171 0 6
11 21 25 35 14 14 25 31 25 39 0 8 9 22 20 32 11 10 20 23 20 30 0 6 11 22 25
35 14 13 25 32 25 42 0 10 5 18 10 18 6 0 18 16 27 35 9 19 20 35 25 35 4 0 8
8 8 18 0 11 9 27 20 37 11 10 20 23 20 30 0 6 16 26 35 45 19 19 35 38 35 43
0 6 34 45 75 89 l76 79 -3 87 -3 87 -30 3 c-16 2 -38 10 -49 18 -30 20 -219
20 -236 -1 -7 -8 -25 -15 -41 -15 -16 0 -29 -4 -29 -10 0 -5 -11 -10 -25 -10
-13 0 -40 -9 -60 -20 -20 -11 -42 -20 -51 -20 -8 0 -35 -11 -60 -25 -25 -14
-56 -25 -69 -25 -14 0 -25 -4 -25 -10 0 -5 -19 -10 -41 -10 -23 0 -59 -5 -80
-12 -38 -11 -55 -8 -139 19 -8 3 -32 7 -53 9 -20 2 -70 12 -110 23 -39 10
-111 26 -158 36 l-86 17 -64 -31 c-83 -40 -161 -43 -217 -7 -54 34 -92 114
-92 192 0 53 3 63 28 86 40 37 131 78 176 78 17 0 18 6 13 64 -9 91 -40 142
-109 177 -69 35 -284 43 -518 19 -206 -21 -353 -15 -435 19 -103 43 -106 45
-99 60 12 28 26 124 31 219 3 68 0 105 -11 140 -19 55 -79 119 -142 150 -141
71 -356 74 -464 7 -63 -40 -154 -148 -202 -241 -108 -208 -204 -263 -438 -249
-245 14 -480 50 -669 101 -31 9 -69 19 -86 23 -64 17 -219 74 -249 92 -17 10
-40 23 -51 28 -11 5 -40 30 -65 56 -25 26 -72 60 -104 77 -62 31 -95 35 -257
28 -116 -5 -194 37 -276 148 -124 169 -210 214 -388 201z"/>
<path d="M8280 4840 c0 -5 5 -10 10 -10 6 0 10 5 10 10 0 6 -4 10 -10 10 -5 0
-10 -4 -10 -10z"/>
<path d="M8325 4820 c-3 -5 1 -10 10 -10 9 0 13 5 10 10 -3 6 -8 10 -10 10 -2
0 -7 -4 -10 -10z"/>
<path d="M8397 4813 c-9 -9 -9 -216 1 -228 7 -10 52 -35 197 -108 90 -46 133
-50 186 -18 18 11 34 30 36 42 2 12 8 28 14 36 15 17 1 38 -95 136 -99 102
-182 147 -271 147 -34 0 -65 -3 -68 -7z"/>
<path d="M8233 4573 c9 -2 23 -2 30 0 6 3 -1 5 -18 5 -16 0 -22 -2 -12 -5z"/>
<path d="M9096 4495 c-4 -11 0 -25 9 -35 8 -9 15 -22 15 -28 0 -6 9 -27 20
-47 11 -20 20 -47 20 -60 0 -14 5 -25 10 -25 25 0 7 -67 -29 -113 -8 -9 -11
-20 -8 -24 10 -9 36 28 37 50 0 9 5 17 10 17 6 0 10 15 10 34 0 19 -4 38 -10
41 -5 3 -10 14 -10 24 0 10 -8 33 -17 52 -10 19 -25 56 -34 83 -12 37 -17 45
-23 31z"/>
<path d="M8988 4483 c7 -3 16 -2 19 1 4 3 -2 6 -13 5 -11 0 -14 -3 -6 -6z"/>
<path d="M9048 4483 c7 -3 16 -2 19 1 4 3 -2 6 -13 5 -11 0 -14 -3 -6 -6z"/>
<path d="M9030 4211 c0 -5 9 -11 21 -14 16 -4 18 -3 8 9 -13 16 -29 19 -29 5z"/>
<path d="M4835 3855 c-55 -8 -139 -14 -186 -14 -88 -1 -130 -16 -114 -40 5 -9
34 -12 104 -9 114 4 109 19 57 -166 -42 -150 -48 -236 -17 -236 26 0 33 13 37
71 4 53 21 127 60 256 29 97 29 97 166 97 67 0 89 4 93 15 15 38 -53 46 -200
26z"/>
<path d="M5916 3796 l-34 -75 -49 -3 c-40 -3 -48 -6 -48 -23 0 -15 8 -21 36
-25 l36 -5 -33 -85 c-34 -88 -43 -157 -22 -178 22 -22 91 -14 140 17 45 29 73
62 62 74 -3 3 -31 -9 -63 -26 -34 -18 -64 -28 -74 -24 -26 10 -20 61 17 152
l32 80 82 11 c89 11 98 15 88 39 -5 14 -16 16 -72 10 l-66 -8 7 24 c4 13 14
36 21 51 21 40 18 68 -6 68 -16 0 -28 -18 -54 -74z"/>
<path d="M5640 3754 c-81 -36 -138 -102 -126 -149 4 -14 32 -42 68 -67 34 -24
63 -48 65 -55 7 -21 -59 -46 -127 -48 -86 -3 -82 -2 -78 -27 3 -21 8 -23 63
-22 114 1 195 47 195 110 0 32 -5 38 -65 75 -68 43 -79 64 -48 95 24 24 82 46
123 48 30 1 35 4 35 26 0 21 -5 25 -35 27 -19 2 -51 -4 -70 -13z"/>
<path d="M6249 3722 c-81 -52 -172 -171 -184 -242 -18 -104 76 -108 190 -8
l45 40 0 -50 c0 -57 17 -78 55 -68 27 7 32 25 14 43 -19 19 -12 97 16 178 29
88 30 95 11 95 -8 0 -18 9 -21 20 -10 31 -71 27 -126 -8z m86 -33 c4 -6 4 -26
0 -45 -7 -41 -119 -165 -166 -184 -70 -30 -61 47 18 143 68 82 129 118 148 86z"/>
<path d="M5025 3716 c-17 -26 -59 -186 -69 -261 -7 -59 5 -85 31 -69 19 12 22
18 56 94 30 70 96 152 147 186 38 25 41 26 58 10 23 -20 36 -20 52 -1 10 12
10 21 2 40 -9 20 -19 25 -50 25 -52 0 -116 -49 -177 -135 -26 -36 -48 -65 -50
-65 -5 0 24 97 41 139 8 18 14 40 14 47 0 23 -38 16 -55 -10z"/>
<path d="M5376 3722 c-10 -17 -84 -248 -90 -283 -4 -25 -2 -40 8 -48 27 -23
42 -2 54 75 7 42 28 112 47 157 19 44 35 86 35 94 0 14 -46 18 -54 5z"/>
<path d="M6536 3715 c-9 -9 -19 -28 -22 -43 -3 -15 -17 -67 -31 -117 -14 -49
-28 -105 -31 -122 -4 -30 -2 -33 21 -33 28 0 51 24 142 148 60 81 94 110 114
98 7 -5 11 -44 11 -101 0 -51 3 -100 6 -109 9 -24 69 -21 94 4 25 25 19 39
-14 33 -31 -6 -36 12 -33 123 2 89 -9 114 -50 114 -53 0 -76 -21 -187 -173
-15 -21 -30 -37 -32 -35 -1 2 10 43 27 91 30 88 34 127 13 134 -7 2 -19 -3
-28 -12z"/>
<path d="M8409 3119 c-15 -15 -19 -28 -14 -47 9 -34 9 -35 35 -27 12 4 29 22
38 41 14 31 14 36 2 44 -23 15 -38 12 -61 -11z"/>
<path d="M5983 3071 c-90 -43 -213 -163 -258 -254 -77 -153 -22 -263 121 -243
73 10 194 80 194 112 0 9 -3 14 -7 12 -5 -1 -39 -18 -76 -37 -124 -63 -207
-43 -207 48 0 104 176 305 298 340 49 14 58 1 43 -59 -15 -59 -11 -69 23 -51
47 25 62 105 26 141 -29 29 -84 25 -157 -9z"/>
<path d="M8000 3070 c-79 -16 -130 -40 -130 -60 0 -10 5 -22 10 -25 12 -8 10
-20 -47 -210 -47 -160 -50 -190 -18 -190 15 0 23 11 33 45 37 132 28 121 116
142 168 39 286 127 286 213 0 32 -6 47 -26 66 -22 21 -36 24 -102 26 -42 1
-97 -2 -122 -7z m150 -40 c25 0 50 -27 50 -54 0 -35 -32 -69 -97 -104 -57 -30
-189 -70 -199 -59 -3 2 7 46 23 97 23 77 31 94 53 102 32 13 121 27 138 22 8
-2 22 -4 32 -4z"/>
<path d="M4604 3049 c-18 -20 -18 -21 4 -37 l22 -17 -21 -60 c-11 -33 -36
-116 -55 -184 -19 -68 -39 -130 -46 -138 -9 -11 -8 -18 5 -30 14 -15 20 -14
64 5 26 11 77 28 112 37 227 58 370 233 305 371 -29 61 -71 74 -232 74 -128 0
-140 -2 -158 -21z m268 -29 c100 -28 106 -153 12 -244 -22 -21 -60 -49 -86
-62 -53 -27 -197 -69 -205 -60 -9 9 14 105 58 243 l39 122 43 4 c83 7 102 7
139 -3z"/>
<path d="M6956 2996 l-34 -75 -49 -3 c-40 -3 -48 -6 -48 -23 0 -15 8 -21 36
-25 l36 -5 -33 -85 c-34 -88 -43 -157 -22 -178 22 -22 91 -14 140 17 45 29 73
62 62 74 -3 3 -31 -9 -63 -26 -34 -18 -64 -28 -74 -24 -26 10 -20 61 17 152
l32 80 82 11 c89 11 98 15 88 39 -5 14 -16 16 -72 10 l-66 -8 7 24 c4 13 14
36 21 51 21 40 18 68 -6 68 -16 0 -28 -18 -54 -74z"/>
<path d="M9026 2996 l-34 -75 -49 -3 c-40 -3 -48 -6 -48 -23 0 -15 8 -21 36
-25 l36 -5 -33 -85 c-34 -88 -43 -157 -22 -178 22 -22 91 -14 140 17 45 29 73
62 62 74 -3 3 -31 -9 -63 -26 -34 -18 -64 -28 -74 -24 -26 10 -20 61 17 152
l32 80 82 11 c89 11 98 15 88 39 -5 14 -16 16 -72 10 l-66 -8 7 24 c4 13 14
36 21 51 21 40 18 68 -6 68 -16 0 -28 -18 -54 -74z"/>
<path d="M6670 2954 c-81 -36 -138 -102 -126 -149 4 -14 32 -42 68 -67 34 -24
63 -48 65 -55 7 -21 -59 -46 -127 -48 -86 -3 -82 -2 -78 -27 3 -21 8 -23 63
-22 114 1 195 47 195 110 0 32 -5 38 -65 75 -68 43 -79 64 -48 95 24 24 82 46
123 48 30 1 35 4 35 26 0 21 -5 25 -35 27 -19 2 -51 -4 -70 -13z"/>
<path d="M5209 2922 c-81 -52 -172 -171 -184 -242 -18 -104 76 -108 190 -8
l45 40 0 -50 c0 -57 17 -78 55 -68 27 7 32 25 14 43 -19 19 -12 97 16 178 29
88 30 95 11 95 -8 0 -18 9 -21 20 -10 31 -71 27 -126 -8z m86 -33 c4 -6 4 -26
0 -45 -7 -41 -119 -165 -166 -184 -70 -30 -61 47 18 143 68 82 129 118 148 86z"/>
<path d="M6315 2931 c-56 -25 -129 -110 -155 -179 -36 -96 -10 -164 63 -164
51 0 76 10 134 53 108 81 148 216 84 280 -35 34 -68 37 -126 10z m85 -51 c53
-53 -18 -191 -122 -234 -44 -19 -66 -13 -74 21 -14 55 48 176 109 214 41 24
62 24 87 -1z"/>
<path d="M7289 2922 c-81 -52 -172 -171 -184 -242 -18 -104 76 -108 190 -8
l45 40 0 -50 c0 -57 17 -78 55 -68 27 7 32 25 14 43 -19 19 -12 97 16 178 29
88 30 95 11 95 -8 0 -18 9 -21 20 -10 31 -71 27 -126 -8z m86 -33 c4 -6 4 -26
0 -45 -7 -41 -119 -165 -166 -184 -70 -30 -61 47 18 143 68 82 129 118 148 86z"/>
<path d="M9355 2931 c-56 -25 -129 -110 -155 -179 -36 -96 -10 -164 63 -164
51 0 76 10 134 53 108 81 148 216 84 280 -35 34 -68 37 -126 10z m85 -51 c53
-53 -18 -191 -122 -234 -44 -19 -66 -13 -74 21 -14 55 48 176 109 214 41 24
62 24 87 -1z"/>
<path d="M8326 2922 c-10 -17 -84 -248 -90 -283 -4 -25 -2 -40 8 -48 27 -23
42 -2 54 75 7 42 28 112 47 157 19 44 35 86 35 94 0 14 -46 18 -54 5z"/>
<path d="M8496 2915 c-9 -9 -19 -28 -22 -43 -3 -15 -17 -67 -31 -117 -14 -49
-28 -105 -31 -122 -4 -30 -2 -33 21 -33 28 0 51 24 142 148 60 81 94 110 114
98 7 -5 11 -44 11 -101 0 -51 3 -100 6 -109 9 -24 69 -21 94 4 25 25 19 39
-14 33 -31 -6 -36 12 -33 123 2 89 -9 114 -50 114 -53 0 -76 -21 -187 -173
-15 -21 -30 -37 -32 -35 -1 2 10 43 27 91 30 88 34 127 13 134 -7 2 -19 -3
-28 -12z"/>
</g>
</svg>
